<mxfile host="app.diagrams.net" modified="2021-12-14T08:39:50.366Z" agent="5.0 (Windows NT 10.0; Win64; x64) AppleWebKit/537.36 (KHTML, like Gecko) Chrome/96.0.4664.93 Safari/537.36" etag="704gsfLg1U3f8-WwFwxS" version="15.8.2" type="github">
  <diagram id="C5RBs43oDa-KdzZeNtuy" name="Page-1">
    <mxGraphModel dx="1609" dy="379" grid="1" gridSize="10" guides="1" tooltips="1" connect="1" arrows="1" fold="1" page="1" pageScale="1" pageWidth="827" pageHeight="1169" math="0" shadow="0">
      <root>
        <mxCell id="WIyWlLk6GJQsqaUBKTNV-0" />
        <mxCell id="WIyWlLk6GJQsqaUBKTNV-1" parent="WIyWlLk6GJQsqaUBKTNV-0" />
        <mxCell id="NOtf0btlQG_n-EOP7QbI-31" style="edgeStyle=orthogonalEdgeStyle;rounded=0;orthogonalLoop=1;jettySize=auto;html=1;exitX=0.5;exitY=1;exitDx=0;exitDy=0;entryX=0.5;entryY=0;entryDx=0;entryDy=0;fontSize=8;" edge="1" parent="WIyWlLk6GJQsqaUBKTNV-1" source="NOtf0btlQG_n-EOP7QbI-1" target="NOtf0btlQG_n-EOP7QbI-4">
          <mxGeometry relative="1" as="geometry" />
        </mxCell>
        <mxCell id="NOtf0btlQG_n-EOP7QbI-1" value="Extract the package to a folder" style="rounded=0;whiteSpace=wrap;html=1;fillColor=#dae8fc;strokeColor=#6c8ebf;" vertex="1" parent="WIyWlLk6GJQsqaUBKTNV-1">
          <mxGeometry x="-45" y="410" width="120" height="60" as="geometry" />
        </mxCell>
        <mxCell id="NOtf0btlQG_n-EOP7QbI-30" style="edgeStyle=orthogonalEdgeStyle;rounded=0;orthogonalLoop=1;jettySize=auto;html=1;exitX=0.5;exitY=1;exitDx=0;exitDy=0;entryX=0.5;entryY=0;entryDx=0;entryDy=0;fontSize=8;" edge="1" parent="WIyWlLk6GJQsqaUBKTNV-1" source="NOtf0btlQG_n-EOP7QbI-2" target="NOtf0btlQG_n-EOP7QbI-1">
          <mxGeometry relative="1" as="geometry" />
        </mxCell>
        <mxCell id="NOtf0btlQG_n-EOP7QbI-2" value="Export the package with all actions elements" style="rounded=0;whiteSpace=wrap;html=1;fillColor=#ffe6cc;strokeColor=#d79b00;" vertex="1" parent="WIyWlLk6GJQsqaUBKTNV-1">
          <mxGeometry x="-45" y="310" width="120" height="60" as="geometry" />
        </mxCell>
        <mxCell id="NOtf0btlQG_n-EOP7QbI-27" style="edgeStyle=orthogonalEdgeStyle;rounded=0;orthogonalLoop=1;jettySize=auto;html=1;exitX=0.5;exitY=1;exitDx=0;exitDy=0;entryX=0.5;entryY=0;entryDx=0;entryDy=0;fontSize=8;" edge="1" parent="WIyWlLk6GJQsqaUBKTNV-1" source="NOtf0btlQG_n-EOP7QbI-4" target="NOtf0btlQG_n-EOP7QbI-12">
          <mxGeometry relative="1" as="geometry" />
        </mxCell>
        <mxCell id="NOtf0btlQG_n-EOP7QbI-4" value="Run vRO_Actions_2_Pure_JS_with_JSDoc_Annotation.ps1 on that folder and save converted content in a seperate folder" style="rounded=0;whiteSpace=wrap;html=1;fillColor=#dae8fc;strokeColor=#6c8ebf;" vertex="1" parent="WIyWlLk6GJQsqaUBKTNV-1">
          <mxGeometry x="-165" y="530" width="360" height="60" as="geometry" />
        </mxCell>
        <mxCell id="NOtf0btlQG_n-EOP7QbI-6" value="&lt;h1 style=&quot;line-height: 0&quot;&gt;Continuous Documentation&lt;/h1&gt;&lt;h1&gt;&lt;font style=&quot;font-size: 19px&quot;&gt;vRO Actions to JSDoc to Gitlab/Gitlab Pages&lt;/font&gt;&lt;/h1&gt;&lt;p&gt;A Process to describe how to directly convert vRO Actions (without any JSDoc annotations) to JSDoc and host them on Gitlab.&lt;/p&gt;" style="text;html=1;strokeColor=none;fillColor=none;spacing=5;spacingTop=-20;whiteSpace=wrap;overflow=hidden;rounded=0;" vertex="1" parent="WIyWlLk6GJQsqaUBKTNV-1">
          <mxGeometry x="-165" y="50" width="360" height="140" as="geometry" />
        </mxCell>
        <mxCell id="NOtf0btlQG_n-EOP7QbI-7" value="&lt;font style=&quot;font-size: 8px&quot;&gt;Manual or Automated using Swagger or PowervRO&lt;/font&gt;" style="text;html=1;strokeColor=none;fillColor=none;align=center;verticalAlign=middle;whiteSpace=wrap;rounded=0;" vertex="1" parent="WIyWlLk6GJQsqaUBKTNV-1">
          <mxGeometry x="110" y="325" width="110" height="30" as="geometry" />
        </mxCell>
        <mxCell id="NOtf0btlQG_n-EOP7QbI-11" value="&lt;font style=&quot;font-size: 8px&quot;&gt;Using Powershell&lt;/font&gt;" style="text;html=1;strokeColor=none;fillColor=none;align=center;verticalAlign=middle;whiteSpace=wrap;rounded=0;" vertex="1" parent="WIyWlLk6GJQsqaUBKTNV-1">
          <mxGeometry x="110" y="425" width="110" height="30" as="geometry" />
        </mxCell>
        <mxCell id="NOtf0btlQG_n-EOP7QbI-32" style="edgeStyle=orthogonalEdgeStyle;rounded=0;orthogonalLoop=1;jettySize=auto;html=1;exitX=0.5;exitY=1;exitDx=0;exitDy=0;entryX=0.5;entryY=0;entryDx=0;entryDy=0;fontSize=8;" edge="1" parent="WIyWlLk6GJQsqaUBKTNV-1" source="NOtf0btlQG_n-EOP7QbI-12" target="NOtf0btlQG_n-EOP7QbI-25">
          <mxGeometry relative="1" as="geometry" />
        </mxCell>
        <mxCell id="NOtf0btlQG_n-EOP7QbI-12" value="Run jsdoc command on the converted content folder" style="rounded=0;whiteSpace=wrap;html=1;fillColor=#d5e8d4;strokeColor=#82b366;" vertex="1" parent="WIyWlLk6GJQsqaUBKTNV-1">
          <mxGeometry x="-45" y="630" width="120" height="60" as="geometry" />
        </mxCell>
        <mxCell id="NOtf0btlQG_n-EOP7QbI-13" value="&lt;font style=&quot;font-size: 8px&quot;&gt;Requires nodejs and jsdoc module installed&lt;/font&gt;" style="text;html=1;strokeColor=none;fillColor=none;align=center;verticalAlign=middle;whiteSpace=wrap;rounded=0;" vertex="1" parent="WIyWlLk6GJQsqaUBKTNV-1">
          <mxGeometry x="110" y="645" width="110" height="30" as="geometry" />
        </mxCell>
        <mxCell id="NOtf0btlQG_n-EOP7QbI-29" style="edgeStyle=orthogonalEdgeStyle;rounded=0;orthogonalLoop=1;jettySize=auto;html=1;exitX=0.5;exitY=1;exitDx=0;exitDy=0;entryX=0.5;entryY=0;entryDx=0;entryDy=0;fontSize=8;" edge="1" parent="WIyWlLk6GJQsqaUBKTNV-1" source="NOtf0btlQG_n-EOP7QbI-16" target="NOtf0btlQG_n-EOP7QbI-2">
          <mxGeometry relative="1" as="geometry" />
        </mxCell>
        <mxCell id="NOtf0btlQG_n-EOP7QbI-16" value="Add desired actions to a package" style="rounded=0;whiteSpace=wrap;html=1;fillColor=#ffe6cc;strokeColor=#d79b00;" vertex="1" parent="WIyWlLk6GJQsqaUBKTNV-1">
          <mxGeometry x="-45" y="210" width="120" height="60" as="geometry" />
        </mxCell>
        <mxCell id="NOtf0btlQG_n-EOP7QbI-18" value="&lt;font style=&quot;font-size: 8px&quot;&gt;Using Swagger&lt;/font&gt;" style="text;html=1;strokeColor=none;fillColor=none;align=center;verticalAlign=middle;whiteSpace=wrap;rounded=0;" vertex="1" parent="WIyWlLk6GJQsqaUBKTNV-1">
          <mxGeometry x="110" y="225" width="110" height="30" as="geometry" />
        </mxCell>
        <mxCell id="NOtf0btlQG_n-EOP7QbI-25" value="Push the content to Gitlab/Github Pages project" style="rounded=0;whiteSpace=wrap;html=1;fillColor=#e1d5e7;strokeColor=#9673a6;" vertex="1" parent="WIyWlLk6GJQsqaUBKTNV-1">
          <mxGeometry x="-45" y="730" width="120" height="60" as="geometry" />
        </mxCell>
      </root>
    </mxGraphModel>
  </diagram>
</mxfile>
